<svg xmlns="http://www.w3.org/2000/svg" width="36" height="36" viewBox="0 0 36 36" fill="none">
  <g clip-path="url(#clip0_651_6838)">
    <path d="M0 0H36V36H0V0Z" fill="white" />
    <path
      d="M25.2688 9H28.2459L22.0526 15.6073C21.5308 16.1586 20.9027 16.5985 20.2061 16.9004C19.5096 17.2023 18.7591 17.3598 18 17.3636C17.2409 17.3598 16.4904 17.2023 15.7939 16.9004C15.0974 16.5985 14.4692 16.1586 13.9474 15.6073L7.74387 9H10.7312L15.4312 14.0612C16.8075 15.5211 19.1925 15.5211 20.5689 14.0612L25.2688 9ZM10.6907 26.9897H7.71429L13.9468 20.4024C14.4695 19.8508 15.0986 19.4109 15.7959 19.109C16.4933 18.8072 17.2446 18.6497 18.0045 18.6461C18.7644 18.6498 19.5158 18.8074 20.2132 19.1093C20.9105 19.4113 21.5395 19.8513 22.0622 20.403L28.2857 27H25.3087L20.5792 21.9587C19.2022 20.4994 16.8178 20.4994 15.4414 21.9587L10.6914 26.9897H10.6907Z"
      fill="url(#paint0_linear_651_6838)"
    />
  </g>
  <defs>
    <linearGradient
      id="paint0_linear_651_6838"
      x1="11.5413"
      y1="12.1217"
      x2="29.6029"
      y2="35.83"
      gradientUnits="userSpaceOnUse"
    >
      <stop stop-color="#1A1E21" />
      <stop offset="1" stop-color="#06060A" />
    </linearGradient>
    <clipPath id="clip0_651_6838">
      <rect width="36" height="36" rx="18" fill="white" />
    </clipPath>
  </defs>
</svg>
