<svg width="36" height="36" viewBox="0 0 36 36" fill="none" xmlns="http://www.w3.org/2000/svg">
<g clip-path="url(#clip0_651_6741)">
<path d="M0 0H36V36H0V0Z" fill="#ADABB8"/>
<path d="M13.6588 13.8568H22.5206L21.2284 10.3899C21.1782 10.2477 21.0863 10.1238 20.9648 10.0344L13.6588 13.8568ZM13.6343 9.74189C13.9487 8.89846 14.6391 8.35718 15.4003 8.35718H20.6396C21.4013 8.35718 22.0924 8.89846 22.4061 9.74189L23.6976 13.2088C24.0846 14.249 23.4591 15.4286 22.5206 15.4286H13.5206C12.582 15.4286 11.9559 14.249 12.3429 13.2088L13.6343 9.74189ZM6.57899 22.8568H15.4228L14.1319 19.3899C14.0814 19.2475 13.9891 19.1236 13.8671 19.0344L6.57899 22.8568ZM6.55456 18.7419C6.86892 17.8985 7.55999 17.3572 8.32049 17.3572H13.5431C14.3042 17.3572 14.9946 17.8985 15.309 18.7419L16.6005 22.2088C16.9881 23.249 16.362 24.4286 15.4221 24.4286H6.43949C5.50092 24.4286 4.87542 23.249 5.26306 22.2088L6.55456 18.7419ZM29.6267 22.8568H20.7231L28.071 19.035C28.1854 19.116 28.2786 19.2382 28.3358 19.3905L29.6267 22.8568ZM22.4633 17.3572C21.7022 17.3572 21.0118 17.8985 20.6981 18.7419L19.4059 22.2088C19.0196 23.249 19.6451 24.4286 20.5843 24.4286H29.6267C30.5653 24.4286 31.1914 23.249 30.8038 22.2088L29.5116 18.7419C29.1999 17.8985 28.5081 17.3572 27.7476 17.3572H22.4633Z" fill="white"/>
</g>
<defs>
<clipPath id="clip0_651_6741">
<rect width="36" height="36" rx="18" fill="white"/>
</clipPath>
</defs>
</svg>
