<svg width="24" height="24" viewBox="0 0 24 24" fill="none" xmlns="http://www.w3.org/2000/svg">
<g clip-path="url(#clip0_21312_5933)">
<path fill-rule="evenodd" clip-rule="evenodd" d="M21.543 9C20.2687 4.94289 16.4784 2 12.0008 2C7.52313 2 3.73284 4.94289 2.45857 9L4.58229 9C5.76906 6.06817 8.64339 4 12.0008 4C15.3581 4 18.2325 6.06817 19.4193 9L21.543 9ZM4.58229 15C5.76906 17.9318 8.64339 20 12.0008 20C15.3581 20 18.2325 17.9318 19.4193 15L21.543 15C20.2687 19.0571 16.4784 22 12.0008 22C7.52313 22 3.73284 19.0571 2.45857 15L4.58229 15Z" fill="#90FB75"/>
<path d="M2.7884 11.6026L6.72146 8.51538L0.925901 6.96247L2.7884 11.6026Z" fill="#90FB75"/>
<path d="M21.2103 12.3976L23.0728 17.0377L17.2772 15.4848L21.2103 12.3976Z" fill="#90FB75"/>
</g>
<defs>
<clipPath id="clip0_21312_5933">
<rect width="24" height="24" fill="white"/>
</clipPath>
</defs>
</svg>
