<svg width="24" height="24" viewBox="0 0 24 24" fill="none" xmlns="http://www.w3.org/2000/svg">
<g clip-path="url(#clip0_21312_7568)">
<path d="M12 1.5C13.418 1.5 14.7933 1.7775 16.0866 2.32453C17.3367 2.85328 18.4598 3.61078 19.4245 4.57547C20.3892 5.54016 21.1467 6.66328 21.6755 7.91344C22.2225 9.20719 22.5 10.582 22.5 12C22.5 13.418 22.2225 14.7933 21.6755 16.0866C21.1467 17.3367 20.3892 18.4598 19.4245 19.4245C18.4598 20.3892 17.3367 21.1467 16.0866 21.6755C14.7933 22.2225 13.418 22.5 12 22.5C10.582 22.5 9.20672 22.2225 7.91344 21.6755C6.66328 21.1467 5.54016 20.3892 4.57547 19.4245C3.61078 18.4598 2.85328 17.3367 2.32453 16.0866C1.7775 14.7928 1.5 13.418 1.5 12C1.5 10.582 1.7775 9.20672 2.32453 7.91344C2.85328 6.66328 3.61078 5.54016 4.57547 4.57547C5.54016 3.61078 6.66328 2.85328 7.91344 2.32453C9.20672 1.7775 10.582 1.5 12 1.5ZM12 0C5.37281 0 0 5.37281 0 12C0 18.6272 5.37281 24 12 24C18.6272 24 24 18.6272 24 12C24 5.37281 18.6272 0 12 0Z" fill="#90FB75"/>
<path fill-rule="evenodd" clip-rule="evenodd" d="M13.3589 18.9244L13.6012 20.5547L13.6017 20.5552L18.6797 5.3208L18.679 5.32103L10.9008 13.7475C10.9008 13.7475 10.9008 13.7475 10.9008 13.7475C12.1847 15.1566 13.0641 16.942 13.3589 18.9244ZM10.2523 13.099L18.6789 5.32105L3.44531 10.3988L5.07562 10.6411C7.05785 10.9359 8.84323 11.8152 10.2523 13.099Z" fill="#90FB75"/>
</g>
<defs>
<clipPath id="clip0_21312_7568">
<rect width="24" height="24" fill="white"/>
</clipPath>
</defs>
</svg>
