<svg width="24" height="24" viewBox="0 0 24 24" fill="none" xmlns="http://www.w3.org/2000/svg">
<g clip-path="url(#clip0_21312_7904)">
<path d="M12 24C18.6274 24 24 18.6274 24 12C24 5.37258 18.6274 0 12 0C5.37258 0 0 5.37258 0 12C0 18.6274 5.37258 24 12 24Z" fill="#90FB75"/>
<path d="M3.44531 10.3983L18.6797 5.32031L10.2525 13.0988C8.84344 11.8148 7.05797 10.9359 5.07562 10.6411L3.44531 10.3983Z" fill="#070707"/>
<path d="M18.6812 5.32031L13.6033 20.5547L13.3605 18.9244C13.2498 18.1809 13.0572 17.4652 12.7914 16.7864C12.5706 16.2211 12.2987 15.6816 11.9823 15.1734C11.9823 15.1734 11.9822 15.1733 11.9819 15.173C11.792 14.8678 11.5858 14.5744 11.3645 14.2931C11.2909 14.1994 11.2155 14.107 11.1386 14.0161C11.0617 13.9252 10.983 13.8356 10.9023 13.7475L18.6812 5.32031Z" fill="#070707"/>
<path d="M18.6812 5.32031L13.6033 20.5547L13.3605 18.9244C13.2498 18.1809 13.0572 17.4652 12.7914 16.7864C12.5706 16.2211 12.2987 15.6816 11.9823 15.1734C11.9823 15.1734 11.9822 15.1733 11.9819 15.173C11.792 14.8683 11.5858 14.5744 11.3645 14.2931C11.2909 14.1994 11.2155 14.107 11.1386 14.0161C11.0617 13.9252 10.983 13.8356 10.9023 13.7475L18.6812 5.32031Z" fill="#070707"/>
</g>
<defs>
<clipPath id="clip0_21312_7904">
<rect width="24" height="24" fill="white"/>
</clipPath>
</defs>
</svg>
