<svg width="24" height="24" viewBox="0 0 24 24" fill="none" xmlns="http://www.w3.org/2000/svg">
<path d="M12 1C11.7348 1.00003 11.4805 1.10539 11.2929 1.29292C11.1054 1.48045 11 1.73479 11 2V12C11 12.2652 11.1054 12.5195 11.2929 12.7071C11.4805 12.8946 11.7348 13 12 13H22C22.2652 13 22.5195 12.8946 22.7071 12.7071C22.8946 12.5195 23 12.2652 23 12C23 5.93659 18.0634 1 12 1ZM13 3.20117C17.1411 3.67891 20.3211 6.85891 20.7988 11H13V3.20117ZM8.04492 3.75391C7.88797 3.749 7.73207 3.78111 7.58984 3.84766C4.28958 5.33557 2 8.66271 2 12.5C2 17.7316 6.26842 22 11.5 22C15.3373 22 18.6644 19.7104 20.1523 16.4102C20.207 16.2903 20.2375 16.1607 20.2419 16.029C20.2464 15.8973 20.2248 15.766 20.1784 15.6427C20.1319 15.5194 20.0616 15.4064 19.9713 15.3104C19.8811 15.2143 19.7728 15.1371 19.6526 15.083C19.5324 15.029 19.4027 14.9992 19.271 14.9955C19.1392 14.9917 19.0081 15.014 18.885 15.0611C18.7619 15.1082 18.6494 15.1792 18.5538 15.2699C18.4582 15.3606 18.3815 15.4694 18.3281 15.5898C17.156 18.1896 14.5427 20 11.5 20C7.35158 20 4 16.6484 4 12.5C4 9.45729 5.81042 6.84396 8.41016 5.67188C8.61905 5.58179 8.79099 5.42317 8.8976 5.2222C9.00421 5.02124 9.03912 4.78993 8.99656 4.56645C8.95401 4.34297 8.83653 4.14068 8.66352 3.99296C8.49051 3.84523 8.27231 3.76091 8.04492 3.75391Z" fill="#90FB75"/>
</svg>
