<svg width="48" height="48" viewBox="0 0 48 48" fill="none" xmlns="http://www.w3.org/2000/svg">
<g clip-path="url(#clip0_22241_22103)">
<path d="M24 46.5C17.9897 46.5 12.3394 44.16 8.08969 39.9103C3.84 35.6606 1.5 30.0103 1.5 24C1.5 17.9897 3.84 12.3394 8.08969 8.08969C12.3394 3.84 17.9897 1.5 24 1.5C30.0103 1.5 35.6606 3.84 39.9103 8.08969C44.16 12.3394 46.5 17.9897 46.5 24C46.5 30.0103 44.16 35.6597 39.9103 39.9103C35.6606 44.16 30.0103 46.5 24 46.5Z" fill="#070707"/>
<path d="M24 3C26.8359 3 29.5866 3.555 32.1731 4.64906C34.6734 5.70656 36.9197 7.22156 38.8491 9.15094C40.7784 11.0803 42.2934 13.3266 43.3509 15.8269C44.445 18.4144 45 21.1641 45 24C45 26.8359 44.445 29.5866 43.3509 32.1731C42.2934 34.6734 40.7784 36.9197 38.8491 38.8491C36.9197 40.7784 34.6734 42.2934 32.1731 43.3509C29.5866 44.445 26.8359 45 24 45C21.1641 45 18.4134 44.445 15.8269 43.3509C13.3266 42.2934 11.0803 40.7784 9.15094 38.8491C7.22156 36.9197 5.70656 34.6734 4.64906 32.1731C3.555 29.5856 3 26.8359 3 24C3 21.1641 3.555 18.4134 4.64906 15.8269C5.70656 13.3266 7.22156 11.0803 9.15094 9.15094C11.0803 7.22156 13.3266 5.70656 15.8269 4.64906C18.4134 3.555 21.1641 3 24 3ZM24 0C10.7456 0 0 10.7456 0 24C0 37.2544 10.7456 48 24 48C37.2544 48 48 37.2544 48 24C48 10.7456 37.2544 0 24 0Z" fill="#90FB75"/>
<path d="M27.2035 41.1094L26.7188 37.8488C26.1291 33.8841 24.3704 30.3131 21.8025 27.495C21.391 27.0431 20.9579 26.61 20.506 26.1984C17.6879 23.6306 14.1169 21.8719 10.1522 21.2822L6.8916 20.7975L37.3604 10.6416L27.2044 41.1103L27.2035 41.1094Z" fill="#90FB75"/>
<path d="M37.3594 10.6406L27.2035 41.1094L26.7179 37.8488C26.1282 33.8831 24.3694 30.3131 21.8016 27.495L37.3585 10.6406H37.3594Z" fill="#65BF40"/>
<path d="M21.8016 27.495C21.39 27.0431 20.9569 26.61 20.505 26.1984L37.3594 10.6416L21.8016 27.4959V27.495Z" fill="#111212"/>
</g>
<defs>
<clipPath id="clip0_22241_22103">
<rect width="48" height="48" fill="white"/>
</clipPath>
</defs>
</svg>