<svg width="36" height="36" viewBox="0 0 36 36" fill="none" xmlns="http://www.w3.org/2000/svg">
<rect width="36" height="36" rx="18" fill="white"/>
<path d="M11.676 17.5387C11.6163 18.5765 12.4152 19.465 13.453 19.5247C13.4903 19.5247 13.5276 19.5247 13.565 19.5247C14.6103 19.5247 15.454 18.681 15.4465 17.6357C15.4465 16.5904 14.6028 15.7467 13.5575 15.7542C12.557 15.7542 11.7283 16.5382 11.676 17.5387Z" fill="#0033AD"/>
<path d="M4.64273 17.0533C4.30675 17.0309 4.01556 17.2923 4.00063 17.6282C3.98569 17.9642 4.23955 18.2554 4.57553 18.2704C4.91152 18.2928 5.19524 18.0314 5.21764 17.6954C5.24004 17.3595 4.97872 17.0757 4.64273 17.0533Z" fill="#0033AD"/>
<path d="M11.5565 6.59309C11.8552 6.44376 11.9747 6.07045 11.8253 5.7718C11.676 5.47314 11.3027 5.35368 11.004 5.50301C10.7054 5.65233 10.5859 6.01818 10.7352 6.31684C10.8846 6.62296 11.2504 6.74988 11.5565 6.59309Z" fill="#0033AD"/>
<path d="M13.468 9.93038C13.9309 9.69893 14.1175 9.13149 13.8861 8.66858C13.6546 8.20566 13.0872 8.019 12.6243 8.25046C12.1614 8.48192 11.9747 9.04936 12.2061 9.51227C12.4376 9.97518 13.005 10.1618 13.468 9.93038Z" fill="#0033AD"/>
<path d="M7.03196 12.2226C7.39034 12.4541 7.86819 12.357 8.10711 11.9987C8.33857 11.6403 8.2415 11.1624 7.88312 10.9235C7.52474 10.6921 7.04689 10.7891 6.80797 11.1475C6.56905 11.5059 6.67357 11.9912 7.03196 12.2226Z" fill="#0033AD"/>
<path d="M8.17436 16.7174C7.65171 16.6875 7.2112 17.0833 7.18133 17.6059C7.15147 18.1285 7.54718 18.5691 8.06983 18.5989C8.59247 18.6288 9.03298 18.2331 9.06285 17.7104C9.09271 17.1953 8.697 16.7473 8.17436 16.7174Z" fill="#0033AD"/>
<path d="M7.1365 23.0412C6.75571 23.2353 6.59892 23.6983 6.79305 24.0865C6.98717 24.4673 7.45008 24.6241 7.83833 24.43C8.21911 24.2358 8.37591 23.7729 8.18178 23.3847C7.98766 23.0039 7.51728 22.8471 7.1365 23.0412Z" fill="#0033AD"/>
<path d="M10.795 14.7685C11.3102 15.1045 11.9971 14.9626 12.3256 14.4475C12.6616 13.9323 12.5197 13.2454 12.0045 12.9169C11.4894 12.5809 10.8025 12.7227 10.4739 13.2379C10.138 13.7456 10.2798 14.4325 10.795 14.7685Z" fill="#0033AD"/>
<path d="M22.4051 9.85575C22.8382 10.1395 23.428 10.02 23.7117 9.58696C23.9955 9.15392 23.876 8.56408 23.4429 8.28036C23.0099 7.99664 22.4201 8.1161 22.1363 8.54915C21.8451 8.98966 21.9646 9.57203 22.4051 9.85575Z" fill="#0033AD"/>
<path d="M24.3315 6.53315C24.6152 6.71981 24.9885 6.63768 25.1752 6.35396C25.3619 6.07024 25.2797 5.69692 24.996 5.51026C24.7123 5.3236 24.339 5.40573 24.1523 5.68199C23.9731 5.96571 24.0552 6.34649 24.3315 6.53315Z" fill="#0033AD"/>
<path d="M22.547 15.7392C21.5092 15.6795 20.6132 16.4784 20.5609 17.5162C20.5012 18.554 21.3001 19.45 22.3379 19.5023C22.3753 19.5023 22.4126 19.5023 22.4425 19.5023C23.4803 19.5023 24.324 18.6586 24.324 17.6133C24.3314 16.6203 23.5475 15.7915 22.547 15.7392Z" fill="#0033AD"/>
<path d="M14.0876 14.6342C14.4087 15.2688 15.0583 15.672 15.775 15.672C16.8129 15.672 17.6566 14.8283 17.6566 13.783C17.6566 13.4918 17.5894 13.2007 17.455 12.9319C16.9846 11.9986 15.8497 11.6253 14.9239 12.0956C13.9906 12.5735 13.6173 13.7084 14.0876 14.6342Z" fill="#0033AD"/>
<path d="M28.8635 12.2226C29.2443 12.0285 29.3936 11.5581 29.1995 11.1773C29.0054 10.7966 28.535 10.6472 28.1542 10.8414C27.7734 11.0355 27.6241 11.4984 27.8108 11.8792C28.0124 12.26 28.4753 12.4168 28.8635 12.2226Z" fill="#0033AD"/>
<path d="M24.085 12.8198C23.54 13.0961 23.316 13.7606 23.5923 14.3056C23.8685 14.8507 24.533 15.0746 25.0781 14.7984C25.6231 14.5221 25.8471 13.8576 25.5708 13.3126C25.2946 12.7676 24.6301 12.551 24.085 12.8198Z" fill="#0033AD"/>
<path d="M17.9253 6.24966C18.3509 6.27206 18.7168 5.94354 18.7466 5.51796C18.7765 5.09238 18.4405 4.72653 18.0149 4.69666C17.5894 4.67426 17.2235 4.99531 17.1936 5.42089C17.1712 5.85394 17.4998 6.21979 17.9253 6.24966Z" fill="#0033AD"/>
<path d="M17.9179 11.1252C18.5301 11.1625 19.0528 10.6921 19.0826 10.0799C19.1199 9.46767 18.6496 8.94503 18.0373 8.91516C17.4251 8.87783 16.9024 9.34821 16.8726 9.96045C16.8427 10.5727 17.3056 11.0953 17.9179 11.1252Z" fill="#0033AD"/>
<path d="M11.9149 22.444C12.46 22.1677 12.6839 21.5032 12.4077 20.9582C12.1314 20.4132 11.4669 20.1892 10.9219 20.4654C10.3768 20.7417 10.1529 21.4062 10.4291 21.9512C10.7054 22.4963 11.3699 22.7203 11.9149 22.444Z" fill="#0033AD"/>
<path d="M18.6346 12.7452C18.0672 13.6188 18.3061 14.7835 19.1797 15.351C20.0532 15.9184 21.218 15.6795 21.7854 14.8059C22.3529 13.9323 22.1139 12.7676 21.2404 12.2002C20.9343 11.9986 20.5759 11.894 20.21 11.894C19.5754 11.894 18.9855 12.2151 18.6346 12.7452Z" fill="#0033AD"/>
<path d="M21.9124 20.6296C21.442 19.6963 20.3071 19.323 19.3813 19.7934C18.448 20.2638 18.0747 21.3987 18.545 22.3245C19.0154 23.2578 20.1503 23.6311 21.0761 23.1607C22.002 22.6978 22.3827 21.5778 21.9198 20.6446C21.9198 20.6371 21.9198 20.6371 21.9124 20.6296Z" fill="#0033AD"/>
<path d="M25.205 20.4952C24.6899 20.1593 24.003 20.3011 23.6744 20.8163C23.3385 21.3315 23.4803 22.0184 23.9955 22.3469C24.5107 22.6829 25.1976 22.541 25.5261 22.0258C25.8621 21.5181 25.7202 20.8312 25.205 20.4952Z" fill="#0033AD"/>
<path d="M28.8188 17.6655C28.8486 17.1429 28.4529 16.7023 27.9303 16.6725C27.4076 16.6426 26.9671 17.0383 26.9373 17.561C26.9074 18.0836 27.3031 18.5241 27.8257 18.554C28.3409 18.5839 28.7889 18.1807 28.8188 17.6655Z" fill="#0033AD"/>
<path d="M31.4245 16.9935C31.0885 16.9711 30.7973 17.2324 30.7824 17.5684C30.7674 17.9044 31.0213 18.1956 31.3573 18.2105C31.6933 18.2329 31.977 17.9716 31.9994 17.6356C32.0143 17.2996 31.7605 17.0159 31.4245 16.9935Z" fill="#0033AD"/>
<path d="M28.9681 23.0412C28.6097 22.8097 28.1319 22.9068 27.8929 23.2652C27.6615 23.6236 27.7585 24.1014 28.1169 24.3403C28.4753 24.5718 28.9531 24.4747 29.1921 24.1163C29.431 23.758 29.3265 23.2726 28.9681 23.0412Z" fill="#0033AD"/>
<path d="M11.6611 28.7305C11.3774 28.5438 11.0041 28.6259 10.8175 28.9022C10.6308 29.1859 10.7129 29.5592 10.9892 29.7459C11.2729 29.9326 11.6462 29.8504 11.8329 29.5742C12.027 29.2979 11.9449 28.9171 11.6611 28.7305Z" fill="#0033AD"/>
<path d="M24.4435 28.6709C24.1448 28.8202 24.0254 29.1935 24.1747 29.4922C24.324 29.7908 24.6973 29.9103 24.996 29.761C25.2946 29.6117 25.4141 29.2458 25.2648 28.9471C25.1155 28.641 24.7496 28.5141 24.4435 28.6709Z" fill="#0033AD"/>
<path d="M17.3654 22.5188C17.9328 21.6452 17.6939 20.4805 16.8204 19.9056C15.9468 19.3381 14.782 19.577 14.2071 20.4506C13.6322 21.3242 13.8786 22.4889 14.7522 23.0638C15.0583 23.2654 15.4167 23.3699 15.7825 23.3699C16.4246 23.3774 17.0145 23.0564 17.3654 22.5188Z" fill="#0033AD"/>
<path d="M13.5949 25.408C13.1619 25.1243 12.572 25.2438 12.2883 25.6768C12.0046 26.1099 12.124 26.6997 12.5571 26.9834C12.9901 27.2672 13.58 27.1477 13.8637 26.7147C14.1549 26.2816 14.0354 25.6918 13.5949 25.408Z" fill="#0033AD"/>
<path d="M17.9925 29.0145C17.5669 28.9921 17.2011 29.3206 17.1712 29.7462C17.1414 30.1718 17.4773 30.5376 17.9029 30.5675C18.3285 30.5899 18.6944 30.2688 18.7242 29.8433C18.7466 29.4102 18.4181 29.0444 17.9925 29.0145Z" fill="#0033AD"/>
<path d="M18 24.1388C17.3878 24.1015 16.8651 24.5718 16.8353 25.1841C16.7979 25.7963 17.2683 26.319 17.8806 26.3488C18.4928 26.3787 19.0154 25.9158 19.0453 25.3035C19.0826 24.6988 18.6123 24.1687 18 24.1388Z" fill="#0033AD"/>
<path d="M22.5321 25.3333C22.0692 25.5723 21.8825 26.1397 22.1214 26.6026C22.3604 27.0655 22.9278 27.2522 23.3907 27.0133C23.8536 26.7818 24.0403 26.2144 23.8088 25.7514C23.5699 25.2885 23.0025 25.0944 22.5321 25.3333Z" fill="#0033AD"/>
</svg>
