<svg width="40" height="40" viewBox="0 0 40 40" fill="none" xmlns="http://www.w3.org/2000/svg">
<g clip-path="url(#clip0_14486_32548)">
<path d="M0 40H40V0H0V40Z" fill="#0D47A1"/>
<path d="M24.4444 18.0649L24.9999 19.2205L26.2444 18.9316L25.6888 20.0649L26.6888 20.8649L25.4444 21.1316V22.4205L24.4444 21.6205L23.4666 22.4205V21.1094L22.2222 20.8872L23.2222 20.0872L22.6666 18.9538L23.9111 19.2427L24.4444 18.0872V18.0649ZM28.8888 26.9538L29.4444 28.1094L30.6888 27.8205L30.1333 28.9538L31.1333 29.7538L29.8888 30.0205V31.3094L28.8888 30.5094L27.9111 31.3094V30.0205L26.6666 29.776L27.6666 28.976L27.1111 27.8427L28.3555 28.1316L28.8888 26.976V26.9538ZM29.5555 11.1094L30.1111 12.2649L31.3555 11.976L30.7999 13.1094L31.7777 13.9094L30.5555 14.176V15.4649L29.5555 14.6649L28.5555 15.4649V14.176L27.3333 13.9094L28.3333 13.1094L27.7777 11.976L28.9999 12.2649L29.5555 11.1094ZM33.9999 18.5538L34.5555 19.6872L35.7999 19.4205L35.2444 20.5538L36.2444 21.3538L34.9999 21.6205V22.8872L34.0222 22.1094L33.0222 22.8872V21.6205L31.7777 21.3538L32.7777 20.5538L32.2222 19.4205L33.4666 19.6872L34.0222 18.5538H33.9999Z" fill="#EF5350"/>
<path d="M20 8.88889V0H0V20H8.88889V13.3333L15.5556 20H20V15.5556L13.3333 8.88889H20Z" fill="#F8F9FD"/>
<path d="M6.66667 2.22222V0H2.22222V2.22222H0V6.66667H2.22222V20H6.66667V6.66667H20V2.22222H6.66667Z" fill="#EF5350"/>
<path d="M20 17.7795L11.1111 8.89062H8.88892L20 20.0017V17.7795Z" fill="#EF5350"/>
</g>
<defs>
<clipPath id="clip0_14486_32548">
<rect width="40" height="40" rx="20" fill="white"/>
</clipPath>
</defs>
</svg>
