<svg width="40" height="40" viewBox="0 0 40 40" fill="none" xmlns="http://www.w3.org/2000/svg">
<g clip-path="url(#clip0_11857_14224)">
<path d="M39.8803 19.9401C39.8803 8.9275 30.9528 0 19.9401 0C8.9275 0 0 8.9275 0 19.9401C0 30.9528 8.9275 39.8803 19.9401 39.8803C30.9528 39.8803 39.8803 30.9528 39.8803 19.9401Z" fill="black"/>
<path d="M11.3991 20.0138C11.3942 20.0171 11.3902 20.0216 11.3874 20.0268C11.3846 20.0321 11.3831 20.038 11.383 20.0439C11.3829 20.0498 11.3843 20.0557 11.387 20.061C11.3896 20.0664 11.3936 20.071 11.3984 20.0745C12.2212 20.6647 12.4103 21.6053 12.4096 22.555C12.408 24.2072 12.408 25.8595 12.4096 27.5121C12.4103 28.4702 13.1176 28.9161 13.9868 28.9109C15.2712 28.9027 16.5558 28.8979 17.8408 28.8964C17.8682 28.8964 17.8819 28.9098 17.8819 28.9367L17.881 31.9717C17.881 31.9926 17.8708 32.003 17.8499 32.003C15.2801 32.0186 13.5811 32.0173 12.753 31.9991C12.368 31.9905 11.9611 31.9263 11.5321 31.8061C9.5135 31.2417 8.65425 29.6873 8.65502 27.6452C8.65603 25.9738 8.65679 24.3024 8.65729 22.6309C8.65806 22.1189 8.55473 21.635 7.9272 21.6297C7.5362 21.6267 7.14469 21.6258 6.75266 21.6273C6.72583 21.6273 6.7124 21.6136 6.7124 21.5864V18.5087C6.7124 18.4783 6.72735 18.4636 6.75722 18.4646C7.11531 18.4743 7.47035 18.4738 7.82236 18.4631C8.48787 18.4427 8.6649 18.1312 8.66337 17.5028C8.65831 15.8315 8.65705 14.1601 8.65957 12.4887C8.6649 9.60932 10.3196 8.08076 13.17 8.08228C14.729 8.08329 16.2882 8.08532 17.8476 8.08836C17.8705 8.08836 17.8819 8.09976 17.8819 8.12254V11.1584C17.8819 11.1842 17.8687 11.1971 17.8424 11.1971C16.5999 11.1982 15.3593 11.1982 14.1205 11.1971C13.4314 11.1971 12.7947 11.3043 12.5228 12.0085C12.4498 12.1959 12.4126 12.5586 12.4111 13.0965C12.406 14.6408 12.3994 16.1854 12.3913 17.7308C12.386 18.6379 12.152 19.5086 11.3991 20.0138Z" fill="white"/>
<path d="M28.4543 20.0121C28.3958 19.962 28.3153 19.9195 28.2643 19.8731C27.5593 19.2258 27.4742 18.2868 27.4727 17.3858C27.4697 15.88 27.4699 14.3742 27.4735 12.8685C27.4765 11.6909 26.9651 11.1758 25.8005 11.1841C24.5409 11.1938 23.2813 11.1986 22.0217 11.1986C21.9954 11.1986 21.9821 11.1854 21.9821 11.1591V8.12246C21.9821 8.09917 21.9936 8.08751 22.0164 8.08751C23.5262 8.08398 25.0342 8.08498 26.5405 8.09055C27.6451 8.09435 28.7316 8.25694 29.6158 8.87155C30.7577 9.66623 31.1976 10.9737 31.2036 12.3366C31.2113 14.09 31.2128 15.8437 31.2083 17.5977C31.2068 18.0536 31.4012 18.4585 31.9179 18.4631C32.3154 18.4666 32.7132 18.4688 33.1113 18.4699C33.1377 18.4699 33.1509 18.4831 33.1509 18.5094V21.5855C33.1509 21.6109 33.1382 21.6235 33.113 21.6235C32.5791 21.6311 32.2306 21.6324 32.0675 21.6273C31.4993 21.6096 31.2151 21.8872 31.2151 22.4599C31.2151 24.2453 31.2136 26.0306 31.2105 27.8159C31.2101 28.1868 31.1579 28.5914 31.054 29.03C30.5458 31.18 28.7369 32.012 26.6932 32.012C25.1272 32.012 23.5621 32.0107 21.9982 32.0081C21.9875 32.0081 21.9821 32.0028 21.9821 31.9922L21.9814 28.9373C21.9814 28.9116 21.9943 28.8985 22.0202 28.8985C23.3204 28.8981 24.6182 28.8979 25.9138 28.8979C26.9857 28.897 27.4864 28.338 27.481 27.2842C27.4724 25.6194 27.4699 23.9543 27.4735 22.289C27.4739 22.0783 27.5177 21.7747 27.6049 21.3781C27.7062 20.9177 27.928 20.531 28.2703 20.218C28.3114 20.18 28.4042 20.1329 28.4573 20.0798C28.4806 20.0565 28.4795 20.0339 28.4543 20.0121Z" fill="white"/>
<path d="M24.8887 20.0476C24.8887 21.3623 24.3666 22.6232 23.4368 23.5528C22.5072 24.4825 21.2464 25.0047 19.9316 25.0047C18.6168 25.0047 17.356 24.4825 16.4264 23.5528C15.4967 22.6232 14.9745 21.3623 14.9744 20.0476C14.9745 18.7328 15.4967 17.472 16.4264 16.5422C17.356 15.6127 18.6168 15.0903 19.9316 15.0903C21.2464 15.0903 22.5072 15.6127 23.4368 16.5422C24.3666 17.472 24.8887 18.7328 24.8887 20.0476ZM22.4098 20.0476C22.4098 19.7221 22.3457 19.3998 22.2212 19.0992C22.0967 18.7986 21.9141 18.5253 21.684 18.2951C21.4538 18.065 21.1807 17.8825 20.88 17.758C20.5793 17.6335 20.2571 17.5694 19.9316 17.5694C19.2744 17.5694 18.644 17.8305 18.1793 18.2951C17.7145 18.7599 17.4534 19.3903 17.4534 20.0476C17.4534 20.7049 17.7145 21.3351 18.1793 21.7999C18.644 22.2647 19.2744 22.5258 19.9316 22.5258C20.2571 22.5258 20.5793 22.4617 20.88 22.3372C21.1807 22.2125 21.4538 22.0301 21.684 21.7999C21.9141 21.5698 22.0967 21.2966 22.2212 20.9959C22.3457 20.6953 22.4098 20.3729 22.4098 20.0476Z" fill="white"/>
</g>
<defs>
<clipPath id="clip0_11857_14224">
<rect width="40" height="40" fill="white"/>
</clipPath>
</defs>
</svg>
