<svg width="40" height="40" viewBox="0 0 40 40" fill="none" xmlns="http://www.w3.org/2000/svg">
<g clip-path="url(#clip0_8895_11257)">
<path d="M40 20C40 8.9543 31.0457 0 20 0C8.9543 0 0 8.9543 0 20C0 31.0457 8.9543 40 20 40C31.0457 40 40 31.0457 40 20Z" fill="url(#paint0_linear_8895_11257)"/>
<path d="M23.4013 23.9226C17.1016 25.7564 11.8904 28.431 8.6284 31.5648L8.48438 31.7038C9.3518 32.4994 10.3029 33.2108 11.3311 33.8156L11.5521 33.5536C12.443 32.4994 13.3975 31.4806 14.3922 30.5202C17.0614 27.9426 20.1157 25.7112 23.4045 23.9194L23.4013 23.9226Z" fill="#141416"/>
<path d="M3.33008 21.2061C3.58126 24.4759 4.8338 27.4737 6.79972 29.9123L6.89014 29.8249C8.90962 27.8941 11.5387 26.1381 14.7102 24.6083C17.49 23.2663 20.6816 22.1149 24.1212 21.2061H3.33008Z" fill="#141416"/>
<path d="M16.1527 7.76841C21.7892 13.2113 28.8826 16.8108 36.6624 18.1755C35.7246 10.1066 28.638 3.82935 20.0276 3.82935C17.7536 3.82935 15.5867 4.26919 13.6074 5.06153C14.4112 5.99939 15.2686 6.91139 16.1527 7.76841Z" fill="#141416"/>
<path d="M8.6284 8.43496C11.8904 11.572 17.1016 14.2433 23.4013 16.0802C20.1125 14.2853 17.058 12.0571 14.3888 9.47956C13.3975 8.52228 12.443 7.50356 11.5488 6.44604L11.3278 6.18408C10.2996 6.78884 9.34843 7.50032 8.48438 8.2959L8.6284 8.43496Z" fill="#141416"/>
<path d="M16.1527 32.231C15.2652 33.088 14.4079 34 13.6074 34.9378C15.5834 35.7302 17.7536 36.17 20.0276 36.17C28.638 36.17 35.7246 29.8928 36.6658 21.8206C28.8858 23.1854 21.7926 26.7848 16.1561 32.2276L16.1527 32.231Z" fill="#141416"/>
<path d="M14.7102 15.391C11.5387 13.8613 8.90962 12.1052 6.89014 10.1745L6.79972 10.0872C4.8338 12.5256 3.58126 15.5236 3.33008 18.7932H24.1178C20.6782 17.8844 17.49 16.7331 14.7069 15.3878L14.7102 15.391Z" fill="#141416"/>
</g>
<defs>
<linearGradient id="paint0_linear_8895_11257" x1="40.4396" y1="15.0912" x2="-0.392872" y2="15.0912" gradientUnits="userSpaceOnUse">
<stop stop-color="#1A3746"/>
<stop offset="0.242213" stop-color="#2B588B"/>
<stop offset="0.367213" stop-color="#5A6B83"/>
<stop offset="0.742213" stop-color="#ED5409"/>
<stop offset="1" stop-color="#FFCB67"/>
</linearGradient>
<clipPath id="clip0_8895_11257">
<rect width="40" height="40" fill="white"/>
</clipPath>
</defs>
</svg>