<svg xmlns="http://www.w3.org/2000/svg" width="36" height="36" viewBox="0 0 36 36" fill="none">
  <g clip-path="url(#clip0_651_6744)">
    <path d="M0 0H36V36H0V0Z" fill="#D69A00" />
    <path
      d="M13.6594 13.8568H22.5206L21.2284 10.3899C21.1782 10.2476 21.0864 10.1238 20.9648 10.0344L13.6594 13.8568ZM13.635 9.74189C13.9487 8.89846 14.6391 8.35718 15.4003 8.35718H20.6402C21.4013 8.35718 22.0918 8.89846 22.4061 9.74189L23.6976 13.2088C24.0853 14.249 23.4591 15.4286 22.5206 15.4286H13.5206C12.582 15.4286 11.9565 14.249 12.3435 13.2088L13.6356 9.74189H13.635ZM6.57964 22.8568H15.4234L14.1313 19.3899C14.081 19.2477 13.9892 19.1238 13.8677 19.0344L6.57964 22.8568ZM6.55456 18.7419C6.86892 17.8985 7.55999 17.3572 8.32049 17.3572H13.5431C14.3042 17.3572 14.9953 17.8985 15.309 18.7419L16.6005 22.2088C16.9881 23.249 16.3626 24.4286 15.4234 24.4286H6.43949C5.50092 24.4286 4.87542 23.249 5.26306 22.2088L6.55456 18.7419ZM29.6267 22.8568H20.7231L28.071 19.035C28.1861 19.116 28.2786 19.2382 28.3365 19.3905L29.6274 22.8568H29.6267ZM22.4646 17.3572C21.7035 17.3572 21.0124 17.8985 20.6987 18.7419L19.4072 22.2088C19.0196 23.249 19.6451 24.4286 20.5843 24.4286H29.6274C30.5659 24.4286 31.1914 23.249 30.8038 22.2088L29.5116 18.7419C29.1999 17.8985 28.5094 17.3572 27.7483 17.3572H22.4646Z"
      fill="white"
    />
  </g>
  <defs>
    <clipPath id="clip0_651_6744">
      <rect width="36" height="36" rx="18" fill="white" />
    </clipPath>
  </defs>
</svg>
