<svg width="24" height="24" viewBox="0 0 24 24" fill="none" xmlns="http://www.w3.org/2000/svg">
<g clip-path="url(#clip0_8895_11247)">
<path d="M24 12C24 5.37258 18.6274 0 12 0C5.37258 0 0 5.37258 0 12C0 18.6274 5.37258 24 12 24C18.6274 24 24 18.6274 24 12Z" fill="url(#paint0_linear_8895_11247)"/>
<path d="M14.04 14.3535C10.2602 15.4538 7.13346 17.0585 5.17626 18.9388L5.08984 19.0222C5.6103 19.4996 6.18098 19.9264 6.79788 20.2893L6.9305 20.1321C7.46502 19.4996 8.0377 18.8883 8.63451 18.312C10.236 16.7655 12.0686 15.4266 14.0419 14.3516L14.04 14.3535Z" fill="#141416"/>
<path d="M1.99805 12.7236C2.14875 14.6855 2.90028 16.4842 4.07983 17.9474L4.13408 17.8949C5.34577 16.7364 6.9232 15.6828 8.82613 14.765C10.494 13.9598 12.409 13.2689 14.4727 12.7236H1.99805Z" fill="#141416"/>
<path d="M9.69124 4.66104C13.0731 7.92677 17.3292 10.0865 21.9971 10.9053C21.4344 6.06398 17.1824 2.29761 12.0162 2.29761C10.6518 2.29761 9.35165 2.56151 8.16406 3.03692C8.64633 3.59963 9.16075 4.14683 9.69124 4.66104Z" fill="#141416"/>
<path d="M5.17626 5.06098C7.13346 6.94319 10.2602 8.54598 14.04 9.64813C12.0667 8.5712 10.234 7.23425 8.6325 5.68774C8.0377 5.11337 7.46502 4.50214 6.9285 3.86763L6.79587 3.71045C6.17896 4.07331 5.60828 4.50019 5.08984 4.97754L5.17626 5.06098Z" fill="#141416"/>
<path d="M9.69124 19.3385C9.15874 19.8527 8.64433 20.3999 8.16406 20.9626C9.34964 21.438 10.6518 21.7019 12.0162 21.7019C17.1824 21.7019 21.4344 17.9356 21.9991 13.0923C17.3311 13.9112 13.0752 16.0708 9.69326 19.3365L9.69124 19.3385Z" fill="#141416"/>
<path d="M8.82613 9.23454C6.9232 8.31672 5.34577 7.26307 4.13408 6.10464L4.07983 6.05225C2.90028 7.51533 2.14875 9.3141 1.99805 11.2759H14.4707C12.4069 10.7306 10.494 10.0398 8.82413 9.23261L8.82613 9.23454Z" fill="#141416"/>
</g>
<defs>
<linearGradient id="paint0_linear_8895_11247" x1="24.2638" y1="9.05473" x2="-0.235723" y2="9.05473" gradientUnits="userSpaceOnUse">
<stop stop-color="#1A3746"/>
<stop offset="0.242213" stop-color="#2B588B"/>
<stop offset="0.367213" stop-color="#5A6B83"/>
<stop offset="0.742213" stop-color="#ED5409"/>
<stop offset="1" stop-color="#FFCB67"/>
</linearGradient>
<clipPath id="clip0_8895_11247">
<rect width="24" height="24" fill="white"/>
</clipPath>
</defs>
</svg>