<svg width="48" height="48" viewBox="0 0 48 48" fill="none" xmlns="http://www.w3.org/2000/svg">
<g clip-path="url(#clip0_22241_20858)">
<path d="M24 48C37.2548 48 48 37.2548 48 24C48 10.7452 37.2548 0 24 0C10.7452 0 0 10.7452 0 24C0 37.2548 10.7452 48 24 48Z" fill="#90FB75"/>
<path d="M6.89062 20.7966L37.3594 10.6406L20.505 26.1975C17.6869 23.6297 14.1159 21.8719 10.1512 21.2822L6.89062 20.7966Z" fill="#070707"/>
<path d="M10.2248 20.7876L9.03171 20.6099L35.3117 11.8502L20.499 25.5226C17.6649 23.0557 14.1311 21.3687 10.2249 20.7876C10.2249 20.7876 10.2248 20.7876 10.2248 20.7876Z" stroke="white" stroke-opacity="0.1"/>
<path d="M37.3596 10.6406L27.2036 41.1094L26.718 37.8488C26.4968 36.3619 26.1114 34.9303 25.5799 33.5728C25.1383 32.4422 24.5946 31.3631 23.9618 30.3469C23.9618 30.3469 23.9614 30.3466 23.9608 30.3459C23.5811 29.7356 23.1686 29.1488 22.7261 28.5863C22.5789 28.3988 22.428 28.2141 22.2743 28.0322C22.1205 27.8503 21.963 27.6712 21.8018 27.495L37.3596 10.6406Z" fill="#070707"/>
<path d="M37.3596 10.6406L27.2036 41.1094L26.718 37.8488C26.4968 36.3619 26.1114 34.9303 25.5799 33.5728C25.1383 32.4422 24.5946 31.3631 23.9618 30.3469C23.9618 30.3469 23.9614 30.3466 23.9608 30.3459C23.5811 29.7366 23.1686 29.1488 22.7261 28.5863C22.5789 28.3988 22.428 28.2141 22.2743 28.0322C22.1205 27.8503 21.963 27.6712 21.8018 27.495L37.3596 10.6406Z" fill="#070707"/>
</g>
<defs>
<clipPath id="clip0_22241_20858">
<rect width="48" height="48" fill="white"/>
</clipPath>
</defs>
</svg>
