<svg width="48" height="48" viewBox="0 0 48 48" fill="none" xmlns="http://www.w3.org/2000/svg">
<g clip-path="url(#clip0_22241_20971)">
<path d="M16 31C11.9931 31 8.22625 29.44 5.39313 26.6069C2.56 23.7738 1 20.0069 1 16C1 11.9931 2.56 8.22625 5.39313 5.39313C8.22625 2.56 11.9931 1 16 1C20.0069 1 23.7738 2.56 26.6069 5.39313C29.44 8.22625 31 11.9931 31 16C31 20.0069 29.44 23.7731 26.6069 26.6069C23.7738 29.44 20.0069 31 16 31Z" fill="#070707"/>
<path d="M16 30.5C12.1257 30.5 8.48601 28.9927 5.74668 26.2533C3.00734 23.514 1.5 19.8743 1.5 16C1.5 12.1257 3.00734 8.48601 5.74668 5.74668C8.48601 3.00734 12.1257 1.5 16 1.5C19.8743 1.5 23.514 3.00734 26.2533 5.74668C28.9927 8.48601 30.5 12.1257 30.5 16C30.5 19.8742 28.9927 23.5133 26.2533 26.2533C23.514 28.9927 19.8743 30.5 16 30.5Z" stroke="white" stroke-opacity="0.1"/>
<path d="M16 2C17.8906 2 19.7244 2.37 21.4487 3.09938C23.1156 3.80437 24.6131 4.81437 25.8994 6.10063C27.1856 7.38688 28.1956 8.88438 28.9006 10.5513C29.63 12.2763 30 14.1094 30 16C30 17.8906 29.63 19.7244 28.9006 21.4487C28.1956 23.1156 27.1856 24.6131 25.8994 25.8994C24.6131 27.1856 23.1156 28.1956 21.4487 28.9006C19.7244 29.63 17.8906 30 16 30C14.1094 30 12.2756 29.63 10.5513 28.9006C8.88438 28.1956 7.38688 27.1856 6.10063 25.8994C4.81437 24.6131 3.80437 23.1156 3.09938 21.4487C2.37 19.7237 2 17.8906 2 16C2 14.1094 2.37 12.2756 3.09938 10.5513C3.80437 8.88438 4.81437 7.38688 6.10063 6.10063C7.38688 4.81437 8.88438 3.80437 10.5513 3.09938C12.2756 2.37 14.1094 2 16 2ZM16 0C7.16375 0 0 7.16375 0 16C0 24.8363 7.16375 32 16 32C24.8363 32 32 24.8363 32 16C32 7.16375 24.8363 0 16 0Z" fill="#90FB75"/>
<path d="M18.136 27.4061L17.8129 25.2324C17.4197 22.5892 16.2472 20.2086 14.5354 18.3299C14.261 18.0286 13.9722 17.7399 13.671 17.4655C11.7922 15.7536 9.4116 14.5811 6.76848 14.188L4.59473 13.8649L24.9072 7.09424L18.1366 27.4067L18.136 27.4061Z" fill="#90FB75"/>
<path d="M24.907 7.09375L18.1364 27.4062L17.8127 25.2325C17.4195 22.5887 16.247 20.2087 14.5352 18.33L24.9064 7.09375H24.907Z" fill="#65BF40"/>
<path d="M14.5343 18.3299C14.2599 18.0286 13.9712 17.7399 13.6699 17.4655L24.9062 7.09424L14.5343 18.3305V18.3299Z" fill="#111212"/>
</g>
<g clip-path="url(#clip1_22241_20971)">
<g clip-path="url(#clip2_22241_20971)">
<path d="M48 31.9458C48 23.1092 40.8366 15.9458 32 15.9458C23.1634 15.9458 16 23.1092 16 31.9458C16 40.7824 23.1634 47.9458 32 47.9458C40.8366 47.9458 48 40.7824 48 31.9458Z" fill="url(#paint0_linear_22241_20971)"/>
<path d="M32 16.4458C40.5604 16.4458 47.5 23.3854 47.5 31.9458C47.5 40.5062 40.5604 47.4458 32 47.4458C23.4396 47.4458 16.5 40.5062 16.5 31.9458C16.5 23.3854 23.4396 16.4458 32 16.4458Z" stroke="white" stroke-opacity="0.1"/>
<path d="M34.7206 35.0841C29.6809 36.5511 25.5119 38.6908 22.9023 41.1979L22.7871 41.3091C23.481 41.9455 24.242 42.5147 25.0645 42.9985L25.2413 42.7889C25.954 41.9455 26.7176 41.1305 27.5133 40.3622C29.6487 38.3001 32.0921 36.515 34.7232 35.0815L34.7206 35.0841Z" fill="#141416"/>
<path d="M18.667 32.9106C18.8679 35.5265 19.87 37.9247 21.4427 39.8756L21.515 39.8057C23.1306 38.261 25.2339 36.8562 27.7711 35.6324C29.9949 34.5588 32.5482 33.6377 35.2999 32.9106H18.667Z" fill="#141416"/>
<path d="M28.923 22.161C33.4322 26.5153 39.1069 29.3949 45.3307 30.4867C44.5805 24.0316 38.9112 19.0098 32.0229 19.0098C30.2036 19.0098 28.4702 19.3616 26.8867 19.9955C27.5297 20.7458 28.2156 21.4754 28.923 22.161Z" fill="#141416"/>
<path d="M22.9023 22.6938C25.5119 25.2034 29.6809 27.3404 34.7206 28.81C32.0896 27.3741 29.646 25.5915 27.5106 23.5295C26.7176 22.7636 25.954 21.9487 25.2386 21.1026L25.0618 20.8931C24.2393 21.3769 23.4784 21.9461 22.7871 22.5825L22.9023 22.6938Z" fill="#141416"/>
<path d="M28.923 41.7307C28.213 42.4163 27.5271 43.1459 26.8867 43.8961C28.4675 44.53 30.2036 44.8819 32.0229 44.8819C38.9112 44.8819 44.5805 39.8601 45.3334 33.4023C39.1094 34.4942 33.4349 37.3737 28.9256 41.7279L28.923 41.7307Z" fill="#141416"/>
<path d="M27.7711 28.2592C25.2339 27.0354 23.1306 25.6305 21.515 24.086L21.4427 24.0161C19.87 25.9669 18.8679 28.3652 18.667 30.9809H35.2972C32.5455 30.2539 29.9949 29.3329 27.7684 28.2566L27.7711 28.2592Z" fill="#141416"/>
</g>
</g>
<defs>
<linearGradient id="paint0_linear_22241_20971" x1="48.3517" y1="28.0188" x2="15.6857" y2="28.0188" gradientUnits="userSpaceOnUse">
<stop stop-color="#1A3746"/>
<stop offset="0.242213" stop-color="#2B588B"/>
<stop offset="0.367213" stop-color="#5A6B83"/>
<stop offset="0.742213" stop-color="#ED5409"/>
<stop offset="1" stop-color="#FFCB67"/>
</linearGradient>
<clipPath id="clip0_22241_20971">
<rect width="32" height="32" fill="white"/>
</clipPath>
<clipPath id="clip1_22241_20971">
<rect width="32" height="32" fill="white" transform="translate(16 16)"/>
</clipPath>
<clipPath id="clip2_22241_20971">
<rect width="32" height="33.3333" fill="white" transform="translate(16 14.6665)"/>
</clipPath>
</defs>
</svg>
